<svg width="19" height="22" viewBox="0 0 19 22" fill="none" xmlns="http://www.w3.org/2000/svg">
<path d="M9.70224 4.61564C9.73139 3.71122 9.98051 2.37888 10.8475 1.5036C11.6523 0.691115 12.632 0.295131 13.2423 0.114103C13.4778 0.044215 13.7038 0.221857 13.6923 0.46731C13.6514 1.33311 13.4237 2.6245 12.8363 3.31632C12.2826 3.96848 11.3919 4.83329 10.0872 4.9788C9.87364 5.00262 9.69532 4.8304 9.70224 4.61564Z" fill="white"/>
<path d="M11.9363 21.1695C12.5628 21.4095 13.1962 21.6522 13.7695 21.6522C14.9959 21.6522 18.567 18.8226 18.6957 15.8838C18.7023 15.7329 18.6121 15.5981 18.4803 15.5243C17.5719 15.016 16.0885 13.7503 16.0369 11.909C15.9767 9.76316 17.0541 8.05879 17.8696 7.35376C18.0531 7.19509 18.1161 6.91531 17.9523 6.73638C17.2104 5.92618 15.7179 4.81172 14.3561 4.83908C13.3653 4.85898 12.4727 5.22803 11.7067 5.54472C11.119 5.78768 10.6059 5.99982 10.1802 5.99982C9.77705 5.99982 9.29304 5.78904 8.73752 5.54713C7.98941 5.22134 7.11162 4.83908 6.12695 4.83908C4.30301 4.83908 0.699227 6.35156 0.699219 12.1904C0.699214 15.2857 3.89458 21.7343 6.59093 21.6522C7.17316 21.6522 7.7954 21.4111 8.41285 21.1719C9.02087 20.9363 9.62425 20.7025 10.1802 20.7025C10.7171 20.7025 11.3233 20.9347 11.9363 21.1695Z" fill="white"/>
</svg>
