<svg width="40" height="40" viewBox="0 0 40 40" fill="none" xmlns="http://www.w3.org/2000/svg">
<rect width="40" height="40" rx="20" fill="#785600"/>
<g clip-path="url(#clip0_3281_42869)">
<g style="mix-blend-mode:luminosity">
<path d="M20.5294 10C24.5225 10 26.519 10 27.7595 11.1716C29 12.3431 29 14.2288 29 18V22C29 25.7712 29 27.6569 27.7595 28.8284C26.519 30 24.5225 30 20.5294 30H19.4706C15.4775 30 13.481 30 12.2405 28.8284C11 27.6569 11 25.7712 11 22L11 18C11 14.2288 11 12.3431 12.2405 11.1716C13.481 10 15.4775 10 19.4706 10L20.5294 10Z" fill="#FFE6A3" stroke="#FFBB0A" stroke-width="1.5" stroke-linecap="round"/>
<path d="M16 15H24" stroke="#FFBB0A" stroke-width="1.5" stroke-linecap="round"/>
<path d="M16 20H24" stroke="#FFBB0A" stroke-width="1.5" stroke-linecap="round"/>
<path d="M16 25H20" stroke="#FFBB0A" stroke-width="1.5" stroke-linecap="round"/>
</g>
<path d="M21.5294 10C25.5225 10 27.519 10 28.7595 11.1716C30 12.3431 30 14.2288 30 18V22C30 25.7712 30 27.6569 28.7595 28.8284C27.519 30 25.5225 30 21.5294 30H20.4706C16.4775 30 14.481 30 13.2405 28.8284C12 27.6569 12 25.7712 12 22L12 18C12 14.2288 12 12.3431 13.2405 11.1716C14.481 10 16.4775 10 20.4706 10L21.5294 10Z" fill="#FFE6A3" stroke="#FFBB0A" stroke-width="1.5" stroke-linecap="round"/>
<path d="M17 15H25" stroke="#FFBB0A" stroke-width="1.5" stroke-linecap="round"/>
<path d="M17 20H25" stroke="#FFBB0A" stroke-width="1.5" stroke-linecap="round"/>
<path d="M17 25H21" stroke="#FFBB0A" stroke-width="1.5" stroke-linecap="round"/>
</g>
<defs>
<clipPath id="clip0_3281_42869">
<rect width="24" height="24" fill="white" transform="translate(8 8)"/>
</clipPath>
</defs>
</svg>
