<svg width="173" height="115" viewBox="0 0 173 115" fill="none" xmlns="http://www.w3.org/2000/svg">
<g clip-path="url(#clip0_2743_26250)">
<rect width="173" height="114.38" rx="22.876" fill="#FFBC0B" fill-opacity="0.14"/>
<rect x="61" y="36" width="40" height="40" rx="20" fill="#785600"/>
<g style="mix-blend-mode:luminosity">
<path d="M87 46V48M75 46V48" stroke="#FFBB0A" stroke-width="1.5" stroke-linecap="round" stroke-linejoin="round"/>
<path d="M71.5 56.2432C71.5 51.8859 71.5 49.7073 72.7521 48.3536C74.0042 47 76.0195 47 80.05 47H81.95C85.9805 47 87.9958 47 89.2479 48.3536C90.5 49.7073 90.5 51.8859 90.5 56.2432V56.7568C90.5 61.1141 90.5 63.2927 89.2479 64.6464C87.9958 66 85.9805 66 81.95 66H80.05C76.0195 66 74.0042 66 72.7521 64.6464C71.5 63.2927 71.5 61.1141 71.5 56.7568V56.2432Z" fill="#FFE6A3" stroke="#FFBB0A" stroke-width="1.5" stroke-linecap="round" stroke-linejoin="round"/>
<path d="M72 52H90" stroke="#FFBB0A" stroke-width="1.5" stroke-linecap="round" stroke-linejoin="round"/>
</g>
<path d="M88 46V48M76 46V48" stroke="#FFBB0A" stroke-width="1.5" stroke-linecap="round" stroke-linejoin="round"/>
<path d="M72.5 56.2432C72.5 51.8859 72.5 49.7073 73.7521 48.3536C75.0042 47 77.0195 47 81.05 47H82.95C86.9805 47 88.9958 47 90.2479 48.3536C91.5 49.7073 91.5 51.8859 91.5 56.2432V56.7568C91.5 61.1141 91.5 63.2927 90.2479 64.6464C88.9958 66 86.9805 66 82.95 66H81.05C77.0195 66 75.0042 66 73.7521 64.6464C72.5 63.2927 72.5 61.1141 72.5 56.7568V56.2432Z" fill="#FFE6A3" stroke="#FFBB0A" stroke-width="1.5" stroke-linecap="round" stroke-linejoin="round"/>
<path d="M73 52H91" stroke="#FFBB0A" stroke-width="1.5" stroke-linecap="round" stroke-linejoin="round"/>
<rect x="12" y="-31" width="40" height="40" rx="20" fill="#785600"/>
<rect x="-3" y="34" width="23" height="23" rx="11.5" fill="#785600"/>
<g style="mix-blend-mode:luminosity">
<path d="M11.9488 39.7539V40.9039M5.04883 39.7539V40.9039" stroke="#FFBB0A" stroke-width="0.8625" stroke-linecap="round" stroke-linejoin="round"/>
<path d="M3.03711 45.643C3.03711 43.1375 3.03711 41.8848 3.75708 41.1065C4.47705 40.3281 5.63582 40.3281 7.95336 40.3281H9.04586C11.3634 40.3281 12.5222 40.3281 13.2421 41.1065C13.9621 41.8848 13.9621 43.1375 13.9621 45.643V45.9383C13.9621 48.4437 13.9621 49.6964 13.2421 50.4748C12.5222 51.2531 11.3634 51.2531 9.04586 51.2531H7.95336C5.63582 51.2531 4.47705 51.2531 3.75708 50.4748C3.03711 49.6964 3.03711 48.4437 3.03711 45.9383V45.643Z" fill="#FFE6A3" stroke="#FFBB0A" stroke-width="0.8625" stroke-linecap="round" stroke-linejoin="round"/>
<path d="M3.32422 43.2031H13.6742" stroke="#FFBB0A" stroke-width="0.8625" stroke-linecap="round" stroke-linejoin="round"/>
</g>
<path d="M12.525 39.7539V40.9039M5.625 39.7539V40.9039" stroke="#FFBB0A" stroke-width="0.8625" stroke-linecap="round" stroke-linejoin="round"/>
<path d="M3.61328 45.643C3.61328 43.1375 3.61328 41.8848 4.33325 41.1065C5.05322 40.3281 6.21199 40.3281 8.52953 40.3281H9.62203C11.9396 40.3281 13.0983 40.3281 13.8183 41.1065C14.5383 41.8848 14.5383 43.1375 14.5383 45.643V45.9383C14.5383 48.4437 14.5383 49.6964 13.8183 50.4748C13.0983 51.2531 11.9396 51.2531 9.62203 51.2531H8.52953C6.21199 51.2531 5.05322 51.2531 4.33325 50.4748C3.61328 49.6964 3.61328 48.4437 3.61328 45.9383V45.643Z" fill="#FFE6A3" stroke="#FFBB0A" stroke-width="0.8625" stroke-linecap="round" stroke-linejoin="round"/>
<path d="M3.90039 43.2031H14.2504" stroke="#FFBB0A" stroke-width="0.8625" stroke-linecap="round" stroke-linejoin="round"/>
<rect x="26" y="102" width="16" height="16" rx="8" fill="#785600"/>
<g style="mix-blend-mode:luminosity" clip-path="url(#clip1_2743_26250)">
<path d="M36.3996 106V106.8M31.5996 106V106.8" stroke="#FFBB0A" stroke-width="0.6" stroke-linecap="round" stroke-linejoin="round"/>
<path d="M30.1992 110.096C30.1992 108.353 30.1992 107.481 30.7001 106.94C31.2009 106.398 32.007 106.398 33.6192 106.398H34.3792C35.9914 106.398 36.7975 106.398 37.2984 106.94C37.7992 107.481 37.7992 108.353 37.7992 110.096V110.301C37.7992 112.044 37.7992 112.916 37.2984 113.457C36.7975 113.998 35.9914 113.998 34.3792 113.998H33.6192C32.007 113.998 31.2009 113.998 30.7001 113.457C30.1992 112.916 30.1992 112.044 30.1992 110.301V110.096Z" fill="#FFE6A3" stroke="#FFBB0A" stroke-width="0.6" stroke-linecap="round" stroke-linejoin="round"/>
<path d="M30.3984 108.398H37.5984" stroke="#FFBB0A" stroke-width="0.6" stroke-linecap="round" stroke-linejoin="round"/>
</g>
<g clip-path="url(#clip2_2743_26250)">
<path d="M36.8 106V106.8M32 106V106.8" stroke="#FFBB0A" stroke-width="0.6" stroke-linecap="round" stroke-linejoin="round"/>
<path d="M30.5996 110.096C30.5996 108.353 30.5996 107.481 31.1005 106.94C31.6013 106.398 32.4074 106.398 34.0196 106.398H34.7796C36.3918 106.398 37.1979 106.398 37.6988 106.94C38.1996 107.481 38.1996 108.353 38.1996 110.096V110.301C38.1996 112.044 38.1996 112.916 37.6988 113.457C37.1979 113.998 36.3918 113.998 34.7796 113.998H34.0196C32.4074 113.998 31.6013 113.998 31.1005 113.457C30.5996 112.916 30.5996 112.044 30.5996 110.301V110.096Z" fill="#FFE6A3" stroke="#FFBB0A" stroke-width="0.6" stroke-linecap="round" stroke-linejoin="round"/>
<path d="M30.7988 108.398H37.9988" stroke="#FFBB0A" stroke-width="0.6" stroke-linecap="round" stroke-linejoin="round"/>
</g>
<rect x="109" y="9" width="16" height="16" rx="8" fill="#785600"/>
<g style="mix-blend-mode:luminosity" clip-path="url(#clip3_2743_26250)">
<path d="M119.4 13V13.8M114.6 13V13.8" stroke="#FFBB0A" stroke-width="0.6" stroke-linecap="round" stroke-linejoin="round"/>
<path d="M113.199 17.0957C113.199 15.3528 113.199 14.4814 113.7 13.9399C114.201 13.3984 115.007 13.3984 116.619 13.3984H117.379C118.991 13.3984 119.798 13.3984 120.298 13.9399C120.799 14.4814 120.799 15.3528 120.799 17.0957V17.3011C120.799 19.0441 120.799 19.9155 120.298 20.457C119.798 20.9984 118.991 20.9984 117.379 20.9984H116.619C115.007 20.9984 114.201 20.9984 113.7 20.457C113.199 19.9155 113.199 19.0441 113.199 17.3011V17.0957Z" fill="#FFE6A3" stroke="#FFBB0A" stroke-width="0.6" stroke-linecap="round" stroke-linejoin="round"/>
<path d="M113.398 15.3984H120.598" stroke="#FFBB0A" stroke-width="0.6" stroke-linecap="round" stroke-linejoin="round"/>
</g>
<g clip-path="url(#clip4_2743_26250)">
<path d="M119.8 13V13.8M115 13V13.8" stroke="#FFBB0A" stroke-width="0.6" stroke-linecap="round" stroke-linejoin="round"/>
<path d="M113.6 17.0957C113.6 15.3528 113.6 14.4814 114.1 13.9399C114.601 13.3984 115.407 13.3984 117.02 13.3984H117.78C119.392 13.3984 120.198 13.3984 120.699 13.9399C121.2 14.4814 121.2 15.3528 121.2 17.0957V17.3011C121.2 19.0441 121.2 19.9155 120.699 20.457C120.198 20.9984 119.392 20.9984 117.78 20.9984H117.02C115.407 20.9984 114.601 20.9984 114.1 20.457C113.6 19.9155 113.6 19.0441 113.6 17.3011V17.0957Z" fill="#FFE6A3" stroke="#FFBB0A" stroke-width="0.6" stroke-linecap="round" stroke-linejoin="round"/>
<path d="M113.799 15.3984H120.999" stroke="#FFBB0A" stroke-width="0.6" stroke-linecap="round" stroke-linejoin="round"/>
</g>
<rect x="138" y="21" width="48" height="48" rx="24" fill="#785600"/>
<g style="mix-blend-mode:luminosity">
<path d="M169.199 33.0039V35.4039M154.799 33.0039V35.4039" stroke="#FFBB0A" stroke-width="1.8" stroke-linecap="round" stroke-linejoin="round"/>
<path d="M150.6 45.295C150.6 40.0662 150.6 37.4519 152.102 35.8275C153.605 34.2031 156.023 34.2031 160.86 34.2031H163.14C167.976 34.2031 170.395 34.2031 171.897 35.8275C173.4 37.4519 173.4 40.0662 173.4 45.295V45.9112C173.4 51.14 173.4 53.7544 171.897 55.3788C170.395 57.0031 167.976 57.0031 163.14 57.0031H160.86C156.023 57.0031 153.605 57.0031 152.102 55.3788C150.6 53.7544 150.6 51.14 150.6 45.9112V45.295Z" fill="#FFE6A3" stroke="#FFBB0A" stroke-width="1.8" stroke-linecap="round" stroke-linejoin="round"/>
<path d="M151.199 40.2031H172.799" stroke="#FFBB0A" stroke-width="1.8" stroke-linecap="round" stroke-linejoin="round"/>
</g>
<path d="M170.4 33.0039V35.4039M156 33.0039V35.4039" stroke="#FFBB0A" stroke-width="1.8" stroke-linecap="round" stroke-linejoin="round"/>
<path d="M151.801 45.295C151.801 40.0662 151.801 37.4519 153.303 35.8275C154.806 34.2031 157.224 34.2031 162.061 34.2031H164.341C169.177 34.2031 171.596 34.2031 173.098 35.8275C174.601 37.4519 174.601 40.0662 174.601 45.295V45.9112C174.601 51.14 174.601 53.7544 173.098 55.3788C171.596 57.0031 169.177 57.0031 164.341 57.0031H162.061C157.224 57.0031 154.806 57.0031 153.303 55.3788C151.801 53.7544 151.801 51.14 151.801 45.9112V45.295Z" fill="#FFE6A3" stroke="#FFBB0A" stroke-width="1.8" stroke-linecap="round" stroke-linejoin="round"/>
<path d="M152.4 40.2031H174" stroke="#FFBB0A" stroke-width="1.8" stroke-linecap="round" stroke-linejoin="round"/>
<rect x="126" y="94" width="23" height="23" rx="11.5" fill="#785600"/>
<g style="mix-blend-mode:luminosity">
<path d="M140.949 99.7539V100.904M134.049 99.7539V100.904" stroke="#FFBB0A" stroke-width="0.8625" stroke-linecap="round" stroke-linejoin="round"/>
<path d="M132.037 105.643C132.037 103.138 132.037 101.885 132.757 101.106C133.477 100.328 134.636 100.328 136.953 100.328H138.046C140.363 100.328 141.522 100.328 142.242 101.106C142.962 101.885 142.962 103.138 142.962 105.643V105.938C142.962 108.444 142.962 109.696 142.242 110.475C141.522 111.253 140.363 111.253 138.046 111.253H136.953C134.636 111.253 133.477 111.253 132.757 110.475C132.037 109.696 132.037 108.444 132.037 105.938V105.643Z" fill="#FFE6A3" stroke="#FFBB0A" stroke-width="0.8625" stroke-linecap="round" stroke-linejoin="round"/>
<path d="M132.324 103.203H142.674" stroke="#FFBB0A" stroke-width="0.8625" stroke-linecap="round" stroke-linejoin="round"/>
</g>
<path d="M141.525 99.7539V100.904M134.625 99.7539V100.904" stroke="#FFBB0A" stroke-width="0.8625" stroke-linecap="round" stroke-linejoin="round"/>
<path d="M132.613 105.643C132.613 103.138 132.613 101.885 133.333 101.106C134.053 100.328 135.212 100.328 137.53 100.328H138.622C140.94 100.328 142.098 100.328 142.818 101.106C143.538 101.885 143.538 103.138 143.538 105.643V105.938C143.538 108.444 143.538 109.696 142.818 110.475C142.098 111.253 140.94 111.253 138.622 111.253H137.53C135.212 111.253 134.053 111.253 133.333 110.475C132.613 109.696 132.613 108.444 132.613 105.938V105.643Z" fill="#FFE6A3" stroke="#FFBB0A" stroke-width="0.8625" stroke-linecap="round" stroke-linejoin="round"/>
<path d="M132.9 103.203H143.25" stroke="#FFBB0A" stroke-width="0.8625" stroke-linecap="round" stroke-linejoin="round"/>
</g>
<defs>
<clipPath id="clip0_2743_26250">
<rect width="173" height="114.38" rx="22.876" fill="white"/>
</clipPath>
<clipPath id="clip1_2743_26250">
<rect width="9.6" height="9.6" fill="white" transform="translate(29.1992 105.199)"/>
</clipPath>
<clipPath id="clip2_2743_26250">
<rect width="9.6" height="9.6" fill="white" transform="translate(29.5996 105.199)"/>
</clipPath>
<clipPath id="clip3_2743_26250">
<rect width="9.6" height="9.6" fill="white" transform="translate(112.199 12.1992)"/>
</clipPath>
<clipPath id="clip4_2743_26250">
<rect width="9.6" height="9.6" fill="white" transform="translate(112.6 12.1992)"/>
</clipPath>
</defs>
</svg>
