<svg width="173" height="115" viewBox="0 0 173 115" fill="none" xmlns="http://www.w3.org/2000/svg">
<g clip-path="url(#clip0_2580_10990)">
<rect width="173" height="114.38" rx="22.876" fill="#FFBC0B" fill-opacity="0.14"/>
<rect width="87.2149" height="120.099" transform="translate(42.8926 -2.85938)" fill="white"/>
<line x1="51.4707" y1="26.2744" x2="120.814" y2="26.2744" stroke="#FFF5DA" stroke-width="0.357438"/>
<line x1="51.4707" y1="26.2744" x2="120.814" y2="26.2744" stroke="#FFF5DA" stroke-width="0.357438"/>
<line x1="51.4707" y1="49.8642" x2="120.814" y2="49.8643" stroke="#FFF5DA" stroke-width="0.357438"/>
<line x1="51.4707" y1="49.8642" x2="120.814" y2="49.8643" stroke="#FFF5DA" stroke-width="0.357438"/>
<line x1="51.4707" y1="73.4541" x2="120.814" y2="73.4541" stroke="#FFF5DA" stroke-width="0.357438"/>
<line x1="51.4707" y1="73.4541" x2="120.814" y2="73.4541" stroke="#FFF5DA" stroke-width="0.357438"/>
<line x1="51.4707" y1="96.3291" x2="120.814" y2="96.3291" stroke="#FFF5DA" stroke-width="0.357438"/>
<line x1="51.4707" y1="96.3291" x2="120.814" y2="96.3291" stroke="#FFF5DA" stroke-width="0.357438"/>
<g clip-path="url(#clip1_2580_10990)">
<rect x="51.4707" y="5.71875" width="12.1529" height="12.1529" rx="6.07645" fill="#FF0000"/>
<path fill-rule="evenodd" clip-rule="evenodd" d="M56.2784 9.99487C57.1229 9.92879 57.9714 9.92879 58.8159 9.99487L59.3832 10.0393C59.6992 10.064 59.9577 10.3008 60.0099 10.6134C60.1406 11.3956 60.1406 12.1941 60.0099 12.9763C59.9577 13.289 59.6992 13.5258 59.3832 13.5505L58.8159 13.5949C57.9714 13.661 57.1229 13.661 56.2784 13.5949L55.7111 13.5505C55.3951 13.5258 55.1366 13.289 55.0844 12.9763C54.9537 12.1941 54.9537 11.3956 55.0844 10.6134C55.1366 10.3008 55.3951 10.064 55.7111 10.0393L56.2784 9.99487ZM57.0408 12.4203V11.1695C57.0408 11.1104 57.1052 11.074 57.1558 11.1043L58.1981 11.7298C58.2473 11.7593 58.2473 11.8305 58.1981 11.86L57.1558 12.4854C57.1052 12.5158 57.0408 12.4793 57.0408 12.4203Z" fill="white"/>
<rect x="51.4707" y="5.71875" width="12.1529" height="12.1529" rx="6.07645" fill="#785600"/>
<g opacity="0.48" clip-path="url(#clip2_2580_10990)">
<rect width="7.29174" height="7.29174" transform="translate(53.9023 8.14844)" fill="#785600"/>
<path d="M56.332 9.67014V10.1259H58.7626V9.67014C58.7626 9.33455 58.4906 9.0625 58.155 9.0625H56.9397C56.6041 9.0625 56.332 9.33455 56.332 9.67014Z" stroke="#FFD874" stroke-width="0.303822"/>
<path d="M55.1172 14.0755V11.7969H60.1303V14.0755C60.1303 14.4111 59.8582 14.6832 59.5226 14.6832H55.7248C55.3892 14.6832 55.1172 14.4111 55.1172 14.0755Z" fill="#FFD874" stroke="#FFD874" stroke-width="0.303822"/>
<path d="M60.1305 9.97266H55.1174C54.7818 9.97266 54.5098 10.2447 54.5098 10.5803V11.036C54.5098 11.7072 55.0539 12.2513 55.7251 12.2513H59.5228C60.194 12.2513 60.7381 11.7072 60.7381 11.036V10.5803C60.7381 10.2447 60.4661 9.97266 60.1305 9.97266Z" fill="#FFBB0A" stroke="#FFBB0A" stroke-width="0.303822"/>
<circle cx="57.8526" cy="11.4952" r="0.303822" fill="#FFD874"/>
</g>
<g clip-path="url(#clip3_2580_10990)">
<path d="M56.6348 9.67014V10.1259H59.0653V9.67014C59.0653 9.33455 58.7933 9.0625 58.4577 9.0625H57.2424C56.9068 9.0625 56.6348 9.33455 56.6348 9.67014Z" stroke="#FFD874" stroke-width="0.303822"/>
<path d="M55.4199 14.0755V11.7969H60.433V14.0755C60.433 14.4111 60.1609 14.6832 59.8253 14.6832H56.0276C55.692 14.6832 55.4199 14.4111 55.4199 14.0755Z" fill="#FFD874" stroke="#FFD874" stroke-width="0.303822"/>
<path d="M60.4332 9.97266H55.4201C55.0846 9.97266 54.8125 10.2447 54.8125 10.5803V11.036C54.8125 11.7072 55.3566 12.2513 56.0278 12.2513H59.8256C60.4968 12.2513 61.0409 11.7072 61.0409 11.036V10.5803C61.0409 10.2447 60.7688 9.97266 60.4332 9.97266Z" fill="#FFBB0A" stroke="#FFBB0A" stroke-width="0.303822"/>
<circle cx="58.1554" cy="11.4952" r="0.303822" fill="#FFD874"/>
</g>
</g>
<g clip-path="url(#clip4_2580_10990)">
<rect x="51.4707" y="31.457" width="12.1529" height="12.1529" rx="6.07645" fill="#FF0000"/>
<path fill-rule="evenodd" clip-rule="evenodd" d="M56.2804 35.7292C57.1249 35.6632 57.9733 35.6632 58.8178 35.7292L59.3852 35.7736C59.7012 35.7983 59.9597 36.0352 60.0119 36.3478C60.1426 37.13 60.1426 37.9285 60.0119 38.7107C59.9597 39.0233 59.7012 39.2602 59.3852 39.2849L58.8178 39.3293C57.9733 39.3953 57.1249 39.3953 56.2804 39.3293L55.713 39.2849C55.397 39.2602 55.1385 39.0233 55.0863 38.7107C54.9556 37.9285 54.9556 37.13 55.0863 36.3478C55.1385 36.0352 55.397 35.7983 55.713 35.7736L56.2804 35.7292ZM57.0427 38.1547V36.9039C57.0427 36.8448 57.1071 36.8083 57.1578 36.8387L58.2001 37.4641C58.2493 37.4936 58.2493 37.5649 58.2001 37.5944L57.1578 38.2198C57.1071 38.2502 57.0427 38.2137 57.0427 38.1547Z" fill="white"/>
<rect x="51.4707" y="31.457" width="12.1529" height="12.1529" rx="6.07645" fill="#785600"/>
<g opacity="0.48">
<rect width="7.29174" height="7.29174" transform="translate(53.9023 33.8867)" fill="#785600"/>
<path d="M56.332 35.4084V35.8642H58.7626V35.4084C58.7626 35.0728 58.4906 34.8008 58.155 34.8008H56.9397C56.6041 34.8008 56.332 35.0728 56.332 35.4084Z" stroke="#FFD874" stroke-width="0.303822"/>
<path d="M55.1172 39.8138V37.5352H60.1303V39.8138C60.1303 40.1494 59.8582 40.4215 59.5226 40.4215H55.7248C55.3892 40.4215 55.1172 40.1494 55.1172 39.8138Z" fill="#FFD874" stroke="#FFD874" stroke-width="0.303822"/>
<path d="M60.1305 35.7109H55.1174C54.7818 35.7109 54.5098 35.983 54.5098 36.3186V36.7743C54.5098 37.4455 55.0539 37.9896 55.7251 37.9896H59.5228C60.194 37.9896 60.7381 37.4455 60.7381 36.7743V36.3186C60.7381 35.983 60.4661 35.7109 60.1305 35.7109Z" fill="#FFBB0A" stroke="#FFBB0A" stroke-width="0.303822"/>
<circle cx="57.8526" cy="37.2335" r="0.303822" fill="#FFD874"/>
</g>
<g clip-path="url(#clip5_2580_10990)">
<path d="M56.6348 35.4084V35.8642H59.0653V35.4084C59.0653 35.0728 58.7933 34.8008 58.4577 34.8008H57.2424C56.9068 34.8008 56.6348 35.0728 56.6348 35.4084Z" stroke="#FFD874" stroke-width="0.303822"/>
<path d="M55.4199 39.8138V37.5352H60.433V39.8138C60.433 40.1494 60.1609 40.4215 59.8253 40.4215H56.0276C55.692 40.4215 55.4199 40.1494 55.4199 39.8138Z" fill="#FFD874" stroke="#FFD874" stroke-width="0.303822"/>
<path d="M60.4332 35.7109H55.4201C55.0846 35.7109 54.8125 35.983 54.8125 36.3186V36.7743C54.8125 37.4455 55.3566 37.9896 56.0278 37.9896H59.8256C60.4968 37.9896 61.0409 37.4455 61.0409 36.7743V36.3186C61.0409 35.983 60.7688 35.7109 60.4332 35.7109Z" fill="#FFBB0A" stroke="#FFBB0A" stroke-width="0.303822"/>
<circle cx="58.1554" cy="37.2335" r="0.303822" fill="#FFD874"/>
</g>
</g>
<g clip-path="url(#clip6_2580_10990)">
<rect x="51.4707" y="55.0469" width="12.1529" height="12.1529" rx="6.07645" fill="#FF0000"/>
<path fill-rule="evenodd" clip-rule="evenodd" d="M56.2804 59.323C57.1249 59.2569 57.9733 59.2569 58.8178 59.323L59.3852 59.3674C59.7012 59.3921 59.9597 59.6289 60.0119 59.9416C60.1426 60.7238 60.1426 61.5222 60.0119 62.3045C59.9597 62.6171 59.7012 62.8539 59.3852 62.8786L58.8178 62.923C57.9733 62.9891 57.1249 62.9891 56.2804 62.923L55.713 62.8786C55.397 62.8539 55.1385 62.6171 55.0863 62.3045C54.9556 61.5222 54.9556 60.7238 55.0863 59.9416C55.1385 59.6289 55.397 59.3921 55.713 59.3674L56.2804 59.323ZM57.0427 61.7484V60.4976C57.0427 60.4386 57.1071 60.4021 57.1578 60.4325L58.2001 61.0579C58.2493 61.0874 58.2493 61.1586 58.2001 61.1881L57.1578 61.8135C57.1071 61.8439 57.0427 61.8075 57.0427 61.7484Z" fill="white"/>
<rect x="51.4707" y="55.0469" width="12.1529" height="12.1529" rx="6.07645" fill="#785600"/>
<g opacity="0.48" clip-path="url(#clip7_2580_10990)">
<rect width="7.29174" height="7.29174" transform="translate(53.9023 57.4766)" fill="#785600"/>
<path d="M56.332 58.9944V59.4501H58.7626V58.9944C58.7626 58.6588 58.4906 58.3867 58.155 58.3867H56.9397C56.6041 58.3867 56.332 58.6588 56.332 58.9944Z" stroke="#FFD874" stroke-width="0.303822"/>
<path d="M55.1172 63.3998V61.1211H60.1303V63.3998C60.1303 63.7354 59.8582 64.0074 59.5226 64.0074H55.7248C55.3892 64.0074 55.1172 63.7354 55.1172 63.3998Z" fill="#FFD874" stroke="#FFD874" stroke-width="0.303822"/>
<path d="M60.1305 59.2969H55.1174C54.7818 59.2969 54.5098 59.5689 54.5098 59.9045V60.3603C54.5098 61.0314 55.0539 61.5755 55.7251 61.5755H59.5228C60.194 61.5755 60.7381 61.0314 60.7381 60.3603V59.9045C60.7381 59.5689 60.4661 59.2969 60.1305 59.2969Z" fill="#FFBB0A" stroke="#FFBB0A" stroke-width="0.303822"/>
<circle cx="57.8526" cy="60.8194" r="0.303822" fill="#FFD874"/>
</g>
<g clip-path="url(#clip8_2580_10990)">
<path d="M56.6348 58.9944V59.4501H59.0653V58.9944C59.0653 58.6588 58.7933 58.3867 58.4577 58.3867H57.2424C56.9068 58.3867 56.6348 58.6588 56.6348 58.9944Z" stroke="#FFD874" stroke-width="0.303822"/>
<path d="M55.4199 63.3998V61.1211H60.433V63.3998C60.433 63.7354 60.1609 64.0074 59.8253 64.0074H56.0276C55.692 64.0074 55.4199 63.7354 55.4199 63.3998Z" fill="#FFD874" stroke="#FFD874" stroke-width="0.303822"/>
<path d="M60.4332 59.2969H55.4201C55.0846 59.2969 54.8125 59.5689 54.8125 59.9045V60.3603C54.8125 61.0314 55.3566 61.5755 56.0278 61.5755H59.8256C60.4968 61.5755 61.0409 61.0314 61.0409 60.3603V59.9045C61.0409 59.5689 60.7688 59.2969 60.4332 59.2969Z" fill="#FFBB0A" stroke="#FFBB0A" stroke-width="0.303822"/>
<circle cx="58.1554" cy="60.8194" r="0.303822" fill="#FFD874"/>
</g>
</g>
<g clip-path="url(#clip9_2580_10990)">
<rect x="51.4707" y="78.6367" width="12.1529" height="12.1529" rx="6.07645" fill="#FF0000"/>
<path fill-rule="evenodd" clip-rule="evenodd" d="M56.2804 82.9128C57.1249 82.8468 57.9733 82.8468 58.8178 82.9128L59.3852 82.9572C59.7012 82.9819 59.9597 83.2188 60.0119 83.5314C60.1426 84.3136 60.1426 85.1121 60.0119 85.8943C59.9597 86.2069 59.7012 86.4438 59.3852 86.4685L58.8178 86.5129C57.9733 86.5789 57.1249 86.5789 56.2804 86.5129L55.713 86.4685C55.397 86.4438 55.1385 86.2069 55.0863 85.8943C54.9556 85.1121 54.9556 84.3136 55.0863 83.5314C55.1385 83.2188 55.397 82.9819 55.713 82.9572L56.2804 82.9128ZM57.0427 85.3383V84.0874C57.0427 84.0284 57.1071 83.9919 57.1578 84.0223L58.2001 84.6477C58.2493 84.6772 58.2493 84.7485 58.2001 84.778L57.1578 85.4034C57.1071 85.4338 57.0427 85.3973 57.0427 85.3383Z" fill="white"/>
<rect x="51.4707" y="78.6367" width="12.1529" height="12.1529" rx="6.07645" fill="#785600"/>
<g opacity="0.48" clip-path="url(#clip10_2580_10990)">
<rect width="7.29174" height="7.29174" transform="translate(53.9023 81.0664)" fill="#785600"/>
<path d="M56.332 82.5881V83.0438H58.7626V82.5881C58.7626 82.2525 58.4906 81.9805 58.155 81.9805H56.9397C56.6041 81.9805 56.332 82.2525 56.332 82.5881Z" stroke="#FFD874" stroke-width="0.303822"/>
<path d="M55.1172 86.9935V84.7148H60.1303V86.9935C60.1303 87.3291 59.8582 87.6012 59.5226 87.6012H55.7248C55.3892 87.6012 55.1172 87.3291 55.1172 86.9935Z" fill="#FFD874" stroke="#FFD874" stroke-width="0.303822"/>
<path d="M60.1305 82.8906H55.1174C54.7818 82.8906 54.5098 83.1627 54.5098 83.4983V83.954C54.5098 84.6252 55.0539 85.1693 55.7251 85.1693H59.5228C60.194 85.1693 60.7381 84.6252 60.7381 83.954V83.4983C60.7381 83.1627 60.4661 82.8906 60.1305 82.8906Z" fill="#FFBB0A" stroke="#FFBB0A" stroke-width="0.303822"/>
<circle cx="57.8526" cy="84.4132" r="0.303822" fill="#FFD874"/>
</g>
<g clip-path="url(#clip11_2580_10990)">
<path d="M56.6348 82.5881V83.0438H59.0653V82.5881C59.0653 82.2525 58.7933 81.9805 58.4577 81.9805H57.2424C56.9068 81.9805 56.6348 82.2525 56.6348 82.5881Z" stroke="#FFD874" stroke-width="0.303822"/>
<path d="M55.4199 86.9935V84.7148H60.433V86.9935C60.433 87.3291 60.1609 87.6012 59.8253 87.6012H56.0276C55.692 87.6012 55.4199 87.3291 55.4199 86.9935Z" fill="#FFD874" stroke="#FFD874" stroke-width="0.303822"/>
<path d="M60.4332 82.8906H55.4201C55.0846 82.8906 54.8125 83.1627 54.8125 83.4983V83.954C54.8125 84.6252 55.3566 85.1693 56.0278 85.1693H59.8256C60.4968 85.1693 61.0409 84.6252 61.0409 83.954V83.4983C61.0409 83.1627 60.7688 82.8906 60.4332 82.8906Z" fill="#FFBB0A" stroke="#FFBB0A" stroke-width="0.303822"/>
<circle cx="58.1554" cy="84.4132" r="0.303822" fill="#FFD874"/>
</g>
</g>
<g clip-path="url(#clip12_2580_10990)">
<rect x="51.4707" y="102.23" width="12.1529" height="12.1529" rx="6.07645" fill="#FF0000"/>
<path fill-rule="evenodd" clip-rule="evenodd" d="M56.2804 106.503C57.1249 106.437 57.9733 106.437 58.8178 106.503L59.3852 106.547C59.7012 106.572 59.9597 106.809 60.0119 107.121C60.1426 107.903 60.1426 108.702 60.0119 109.484C59.9597 109.797 59.7012 110.034 59.3852 110.058L58.8178 110.103C57.9733 110.169 57.1249 110.169 56.2804 110.103L55.713 110.058C55.397 110.034 55.1385 109.797 55.0863 109.484C54.9556 108.702 54.9556 107.903 55.0863 107.121C55.1385 106.809 55.397 106.572 55.713 106.547L56.2804 106.503ZM57.0427 108.928V107.677C57.0427 107.618 57.1071 107.582 57.1578 107.612L58.2001 108.238C58.2493 108.267 58.2493 108.338 58.2001 108.368L57.1578 108.993C57.1071 109.024 57.0427 108.987 57.0427 108.928Z" fill="white"/>
<rect x="51.4707" y="102.23" width="12.1529" height="12.1529" rx="6.07645" fill="#785600"/>
<g opacity="0.48" clip-path="url(#clip13_2580_10990)">
<rect width="7.29174" height="7.29174" transform="translate(53.9023 104.656)" fill="#785600"/>
<path d="M56.332 106.178V106.634H58.7626V106.178C58.7626 105.842 58.4906 105.57 58.155 105.57H56.9397C56.6041 105.57 56.332 105.842 56.332 106.178Z" stroke="#FFD874" stroke-width="0.303822"/>
<path d="M55.1172 110.583V108.305H60.1303V110.583C60.1303 110.919 59.8582 111.191 59.5226 111.191H55.7248C55.3892 111.191 55.1172 110.919 55.1172 110.583Z" fill="#FFD874" stroke="#FFD874" stroke-width="0.303822"/>
<path d="M60.1305 106.48H55.1174C54.7818 106.48 54.5098 106.753 54.5098 107.088V107.544C54.5098 108.215 55.0539 108.759 55.7251 108.759H59.5228C60.194 108.759 60.7381 108.215 60.7381 107.544V107.088C60.7381 106.753 60.4661 106.48 60.1305 106.48Z" fill="#FFBB0A" stroke="#FFBB0A" stroke-width="0.303822"/>
<circle cx="57.8526" cy="108.003" r="0.303822" fill="#FFD874"/>
</g>
<g clip-path="url(#clip14_2580_10990)">
<path d="M56.6348 106.178V106.634H59.0653V106.178C59.0653 105.842 58.7933 105.57 58.4577 105.57H57.2424C56.9068 105.57 56.6348 105.842 56.6348 106.178Z" stroke="#FFD874" stroke-width="0.303822"/>
<path d="M55.4199 110.583V108.305H60.433V110.583C60.433 110.919 60.1609 111.191 59.8253 111.191H56.0276C55.692 111.191 55.4199 110.919 55.4199 110.583Z" fill="#FFD874" stroke="#FFD874" stroke-width="0.303822"/>
<path d="M60.4332 106.48H55.4201C55.0846 106.48 54.8125 106.753 54.8125 107.088V107.544C54.8125 108.215 55.3566 108.759 56.0278 108.759H59.8256C60.4968 108.759 61.0409 108.215 61.0409 107.544V107.088C61.0409 106.753 60.7688 106.48 60.4332 106.48Z" fill="#FFBB0A" stroke="#FFBB0A" stroke-width="0.303822"/>
<circle cx="58.1554" cy="108.003" r="0.303822" fill="#FFD874"/>
</g>
</g>
<rect x="67.9141" y="7.14844" width="50.0413" height="3.57438" rx="1.42975" fill="#FFBB0A"/>
<rect x="67.9141" y="32.8867" width="50.0413" height="3.57438" rx="1.42975" fill="#FFBB0A"/>
<rect x="67.9141" y="56.4766" width="50.0413" height="3.57438" rx="1.42975" fill="#FFBB0A"/>
<rect x="67.9141" y="80.0664" width="50.0413" height="3.57438" rx="1.42975" fill="#FFBB0A"/>
<rect x="67.9141" y="103.66" width="50.0413" height="3.57438" rx="1.42975" fill="#FFBB0A"/>
<rect x="67.9141" y="12.8672" width="15.7273" height="2.14463" rx="1.07231" fill="#FFDE88"/>
<rect x="67.9141" y="38.6055" width="15.7273" height="2.14463" rx="1.07231" fill="#FFDE88"/>
<rect x="67.9141" y="62.1953" width="15.7273" height="2.14463" rx="1.07231" fill="#FFDE88"/>
<rect x="67.9141" y="85.7852" width="15.7273" height="2.14463" rx="1.07231" fill="#FFDE88"/>
<rect x="67.9141" y="109.379" width="15.7273" height="2.14463" rx="1.07231" fill="#FFDE88"/>
</g>
<defs>
<clipPath id="clip0_2580_10990">
<rect width="173" height="114.38" rx="22.876" fill="white"/>
</clipPath>
<clipPath id="clip1_2580_10990">
<rect x="51.4707" y="5.71875" width="12.1529" height="12.1529" rx="6.07645" fill="white"/>
</clipPath>
<clipPath id="clip2_2580_10990">
<rect width="7.29174" height="7.29174" fill="white" transform="translate(53.9023 8.14844)"/>
</clipPath>
<clipPath id="clip3_2580_10990">
<rect width="7.29174" height="7.29174" fill="white" transform="translate(54.2051 8.14844)"/>
</clipPath>
<clipPath id="clip4_2580_10990">
<rect x="51.4707" y="31.457" width="12.1529" height="12.1529" rx="6.07645" fill="white"/>
</clipPath>
<clipPath id="clip5_2580_10990">
<rect width="7.29174" height="7.29174" fill="white" transform="translate(54.2051 33.8867)"/>
</clipPath>
<clipPath id="clip6_2580_10990">
<rect x="51.4707" y="55.0469" width="12.1529" height="12.1529" rx="6.07645" fill="white"/>
</clipPath>
<clipPath id="clip7_2580_10990">
<rect width="7.29174" height="7.29174" fill="white" transform="translate(53.9023 57.4766)"/>
</clipPath>
<clipPath id="clip8_2580_10990">
<rect width="7.29174" height="7.29174" fill="white" transform="translate(54.2051 57.4766)"/>
</clipPath>
<clipPath id="clip9_2580_10990">
<rect x="51.4707" y="78.6367" width="12.1529" height="12.1529" rx="6.07645" fill="white"/>
</clipPath>
<clipPath id="clip10_2580_10990">
<rect width="7.29174" height="7.29174" fill="white" transform="translate(53.9023 81.0664)"/>
</clipPath>
<clipPath id="clip11_2580_10990">
<rect width="7.29174" height="7.29174" fill="white" transform="translate(54.2051 81.0664)"/>
</clipPath>
<clipPath id="clip12_2580_10990">
<rect x="51.4707" y="102.23" width="12.1529" height="12.1529" rx="6.07645" fill="white"/>
</clipPath>
<clipPath id="clip13_2580_10990">
<rect width="7.29174" height="7.29174" fill="white" transform="translate(53.9023 104.656)"/>
</clipPath>
<clipPath id="clip14_2580_10990">
<rect width="7.29174" height="7.29174" fill="white" transform="translate(54.2051 104.656)"/>
</clipPath>
</defs>
</svg>
