<svg width="44" height="44" viewBox="0 0 44 44" fill="none" xmlns="http://www.w3.org/2000/svg">
<rect width="44" height="44" rx="22" fill="#FFFAEE"/>
<path d="M22 28.25C21.5858 28.25 21.25 28.5858 21.25 29C21.25 29.4142 21.5858 29.75 22 29.75H28C28.9665 29.75 29.75 28.9665 29.75 28V16C29.75 15.0335 28.9665 14.25 28 14.25H22C21.5858 14.25 21.25 14.5858 21.25 15C21.25 15.4142 21.5858 15.75 22 15.75L28 15.75C28.1381 15.75 28.25 15.8619 28.25 16L28.25 28C28.25 28.1381 28.1381 28.25 28 28.25H22Z" fill="#FFBB0A"/>
<path fill-rule="evenodd" clip-rule="evenodd" d="M24.5031 24.3652C25.1934 24.3652 25.7531 23.8056 25.7531 23.1152V20.8747C25.7531 20.1843 25.1934 19.6247 24.5031 19.6247L19.8905 19.6247C19.884 19.5513 19.8771 19.4779 19.87 19.4045L19.816 18.8486C19.7335 18.0005 18.8329 17.4926 18.0645 17.8608C16.4303 18.644 14.9508 19.7158 13.6974 21.0245L13.5982 21.1281C13.1339 21.6128 13.1339 22.3771 13.5982 22.8618L13.6974 22.9654C14.9508 24.2741 16.4303 25.3459 18.0645 26.1291C18.8329 26.4973 19.7335 25.9894 19.816 25.1413L19.87 24.5854C19.8771 24.512 19.884 24.4386 19.8905 24.3652H24.5031ZM19.1951 22.8652C18.9287 22.8652 18.6933 23.0045 18.5601 23.216C18.4952 23.319 18.4546 23.4391 18.4466 23.5685C18.4284 23.8594 18.4052 24.15 18.377 24.4403L18.3613 24.6017C17.3253 24.0677 16.3632 23.4028 15.4984 22.6239C15.274 22.4218 15.0562 22.2121 14.8454 21.995C15.8689 20.9409 17.0565 20.0607 18.3613 19.3882L18.377 19.5496C18.4052 19.8399 18.4284 20.1305 18.4466 20.4214C18.4712 20.8167 18.799 21.1247 19.1951 21.1247H24.2531V22.8652H19.1951Z" fill="#FFBB0A"/>
</svg>
