<svg width="44" height="44" viewBox="0 0 44 44" fill="none" xmlns="http://www.w3.org/2000/svg">
<rect width="44" height="44" rx="22" fill="#FF0000" fill-opacity="0.08"/>
<path d="M23.0003 19.0005C23.0003 19.5528 22.5526 20.0005 22.0003 20.0005C21.448 20.0005 21.0003 19.5528 21.0003 19.0005C21.0003 18.4483 21.448 18.0005 22.0003 18.0005C22.5526 18.0005 23.0003 18.4483 23.0003 19.0005Z" fill="#FF0000"/>
<path d="M22.0003 21.7505C22.4145 21.7505 22.7503 22.0863 22.7503 22.5005V27.5005C22.7503 27.9148 22.4145 28.2505 22.0003 28.2505C21.5861 28.2505 21.2503 27.9148 21.2503 27.5005V22.5005C21.2503 22.0863 21.5861 21.7505 22.0003 21.7505Z" fill="#FF0000"/>
<path fill-rule="evenodd" clip-rule="evenodd" d="M24.2707 13.9932C23.1787 12.3955 20.8219 12.3955 19.7299 13.9932L19.298 14.6251C16.592 18.5843 14.267 22.791 12.3543 27.1886L12.264 27.396C11.59 28.9458 12.6084 30.7055 14.2879 30.8932C19.4135 31.4661 24.587 31.4661 29.7127 30.8932C31.3922 30.7055 32.4106 28.9458 31.7365 27.396L31.6463 27.1886C29.7336 22.7909 27.4086 18.5843 24.7026 14.6251L24.2707 13.9932ZM20.9683 14.8396C21.4647 14.1134 22.5359 14.1134 23.0323 14.8396L23.4642 15.4715C26.1168 19.3525 28.3958 23.4761 30.2708 27.7869L30.361 27.9943C30.6324 28.6184 30.2224 29.3269 29.5461 29.4025C24.5312 29.963 19.4694 29.963 14.4545 29.4025C13.7782 29.3269 13.3682 28.6184 13.6396 27.9943L13.7298 27.7869C15.6047 23.4761 17.8838 19.3525 20.5364 15.4715L20.9683 14.8396Z" fill="#FF0000"/>
</svg>
