<svg width="50" height="40" viewBox="0 0 50 40" fill="none" xmlns="http://www.w3.org/2000/svg">
<g clip-path="url(#clip0_1586_16985)">
<rect width="50" height="40" rx="8" fill="#FFBB0A"/>
<path fill-rule="evenodd" clip-rule="evenodd" d="M1.08381 20.0507V18.1011C1.08381 16.6574 2.14005 15.4309 3.56782 15.2167L5.60101 14.9117C7.85471 14.5737 10.1462 14.5737 12.3999 14.9117L14.4331 15.2167C15.8609 15.4309 16.9171 16.6574 16.9171 18.1011V20.0508L19.7739 20.2813C21.9612 20.4579 23.7454 22.1048 24.0962 24.271C24.8715 29.0586 24.8715 33.9397 24.0962 38.7272C23.7454 40.8934 21.9612 42.5403 19.7739 42.7169L16.654 42.9687C11.5599 43.3799 6.44101 43.3799 1.34693 42.9687L-1.77293 42.7169C-3.96024 42.5403 -5.74447 40.8934 -6.09527 38.7272C-6.87059 33.9397 -6.87059 29.0586 -6.09527 24.271C-5.74447 22.1048 -3.96024 20.4579 -1.77293 20.2813L1.08381 20.0507ZM5.97186 17.3841C7.97971 17.0829 10.0212 17.0829 12.0291 17.3841L14.0623 17.6891C14.2663 17.7197 14.4171 17.8949 14.4171 18.1011V19.8755C10.809 19.6697 7.19199 19.6697 3.58381 19.8755V18.1011C3.58381 17.8949 3.7347 17.7197 3.93867 17.6891L5.97186 17.3841ZM1.54808 22.5214C6.50827 22.121 11.4927 22.121 16.4529 22.5214L19.5727 22.7732C20.613 22.8572 21.4615 23.6404 21.6284 24.6707C21.7323 25.3122 21.8214 25.9555 21.8958 26.6001C13.7665 30.6031 4.23445 30.6031 -3.8949 26.6001C-3.82048 25.9555 -3.73132 25.3122 -3.62742 24.6707C-3.46059 23.6404 -2.61204 22.8572 -1.57179 22.7732L1.54808 22.5214ZM-4.11804 29.2602C4.2143 33.0498 13.7866 33.0498 22.119 29.2602C22.2779 32.2872 22.1143 35.3268 21.6284 38.3276C21.4615 39.3578 20.613 40.141 19.5727 40.225L16.4529 40.4768C11.4927 40.8772 6.50827 40.8772 1.54808 40.4768L-1.57179 40.225C-2.61204 40.141 -3.46059 39.3578 -3.62742 38.3276C-4.11338 35.3268 -4.27692 32.2872 -4.11804 29.2602Z" fill="white" fill-opacity="0.12"/>
<path fill-rule="evenodd" clip-rule="evenodd" d="M20.2501 14.6301V13.4603C20.2501 12.594 20.8838 11.8581 21.7405 11.7296L22.9604 11.5467C24.3126 11.3438 25.6875 11.3438 27.0398 11.5467L28.2597 11.7296C29.1163 11.8581 29.7501 12.594 29.7501 13.4603V14.6301L31.4641 14.7684C32.7765 14.8743 33.847 15.8625 34.0575 17.1622C34.5227 20.0347 34.5227 22.9634 34.0575 25.836C33.847 27.1357 32.7765 28.1238 31.4641 28.2298L29.5922 28.3809C26.5358 28.6276 23.4644 28.6276 20.408 28.3809L18.536 28.2298C17.2237 28.1238 16.1531 27.1357 15.9426 25.836C15.4775 22.9634 15.4775 20.0347 15.9426 17.1622C16.1531 15.8625 17.2237 14.8743 18.536 14.7684L20.2501 14.6301ZM23.1829 13.0301C24.3876 12.8494 25.6126 12.8494 26.8173 13.0301L28.0372 13.213C28.1596 13.2314 28.2501 13.3365 28.2501 13.4603V14.5249C26.0852 14.4014 23.915 14.4014 21.7501 14.5249V13.4603C21.7501 13.3365 21.8406 13.2314 21.963 13.213L23.1829 13.0301ZM20.5287 16.1125C23.5048 15.8722 26.4954 15.8722 29.4715 16.1125L31.3434 16.2636C31.9676 16.3139 32.4767 16.7839 32.5768 17.402C32.6392 17.7869 32.6926 18.1729 32.7373 18.5597C27.8597 20.9615 22.1405 20.9615 17.2629 18.5597C17.3075 18.1729 17.361 17.7869 17.4234 17.402C17.5235 16.7839 18.0326 16.3139 18.6567 16.2636L20.5287 16.1125ZM17.129 20.1557C22.1284 22.4295 27.8718 22.4295 32.8712 20.1557C32.9665 21.9719 32.8684 23.7957 32.5768 25.5962C32.4767 26.2143 31.9676 26.6842 31.3434 26.7346L29.4715 26.8857C26.4954 27.1259 23.5048 27.1259 20.5287 26.8857L18.6567 26.7346C18.0326 26.6842 17.5235 26.2143 17.4234 25.5962C17.1318 23.7957 17.0337 21.9719 17.129 20.1557Z" fill="white"/>
</g>
<defs>
<clipPath id="clip0_1586_16985">
<rect width="50" height="40" rx="8" fill="white"/>
</clipPath>
</defs>
</svg>
