<svg width="24" height="24" viewBox="0 0 24 24" fill="none" xmlns="http://www.w3.org/2000/svg">
<path d="M11.703 5.61565C11.7321 4.71122 11.9812 3.37889 12.8483 2.5036C13.6531 1.69112 14.6328 1.29514 15.243 1.11411C15.4786 1.04422 15.7046 1.22187 15.693 1.46732C15.6521 2.33312 15.4244 3.6245 14.8371 4.31633C14.2834 4.96849 13.3926 5.8333 12.0879 5.97881C11.8744 6.00262 11.6961 5.83041 11.703 5.61565Z" fill="black"/>
<path d="M13.937 22.1695C14.5635 22.4095 15.197 22.6522 15.7703 22.6522C16.9966 22.6522 20.5678 19.8226 20.6964 16.8838C20.703 16.7329 20.6128 16.5981 20.481 16.5243C19.5726 16.016 18.0893 14.7504 18.0376 12.909C17.9775 10.7632 19.0549 9.0588 19.8703 8.35377C20.0538 8.1951 20.1169 7.91532 19.953 7.73639C19.2111 6.92619 17.7186 5.81173 16.3568 5.83909C15.366 5.85899 14.4734 6.22804 13.7074 6.54473C13.1197 6.78769 12.6066 6.99983 12.181 6.99983C11.7778 6.99983 11.2938 6.78905 10.7383 6.54713C9.99015 6.22135 9.11236 5.83909 8.12768 5.83909C6.30374 5.83909 2.69996 7.35156 2.69995 13.1904C2.69995 16.2857 5.89531 22.7343 8.59166 22.6522C9.1739 22.6522 9.79613 22.4111 10.4136 22.1719C11.0216 21.9363 11.625 21.7025 12.181 21.7025C12.7178 21.7025 13.3241 21.9347 13.937 22.1695Z" fill="black"/>
</svg>
