<svg width="40" height="40" viewBox="0 0 40 40" fill="none" xmlns="http://www.w3.org/2000/svg">
<g clip-path="url(#clip0_2552_12181)">
<rect width="40" height="40" rx="20" fill="#FF0000"/>
<path fill-rule="evenodd" clip-rule="evenodd" d="M15.824 14.0752C18.6037 13.8577 21.3962 13.8577 24.1759 14.0752L26.0432 14.2213C27.0832 14.3027 27.9341 15.0822 28.106 16.1111C28.5362 18.6857 28.5362 21.3138 28.106 23.8884C27.9341 24.9174 27.0832 25.6969 26.0432 25.7783L24.1759 25.9243C21.3962 26.1418 18.6037 26.1418 15.824 25.9243L13.9568 25.7783C12.9167 25.6969 12.0658 24.9174 11.8939 23.8884C11.4637 21.3138 11.4637 18.6857 11.8939 16.1111C12.0658 15.0822 12.9167 14.3027 13.9568 14.2213L15.824 14.0752ZM18.3333 22.0582V17.9413C18.3333 17.747 18.5453 17.627 18.7119 17.727L22.1427 19.7854C22.3045 19.8825 22.3045 20.1171 22.1427 20.2142L18.7119 22.2726C18.5453 22.3726 18.3333 22.2526 18.3333 22.0582Z" fill="white"/>
<rect width="40" height="40" rx="20" fill="#785600"/>
<g opacity="0.48">
<rect width="24" height="24" transform="translate(8 8)" fill="#785600"/>
<path d="M16 13V14.5H24V13C24 11.8954 23.1046 11 22 11H18C16.8954 11 16 11.8954 16 13Z" stroke="#FFD874"/>
<path d="M12 27.5V20H28.5V27.5C28.5 28.6046 27.6046 29.5 26.5 29.5H14C12.8954 29.5 12 28.6046 12 27.5Z" fill="#FFD874" stroke="#FFD874"/>
<path d="M28.5 14H12C10.8954 14 10 14.8954 10 16V17.5C10 19.7091 11.7909 21.5 14 21.5H26.5C28.7091 21.5 30.5 19.7091 30.5 17.5V16C30.5 14.8954 29.6046 14 28.5 14Z" fill="#FFBB0A" stroke="#FFBB0A"/>
<circle cx="21" cy="19" r="1" fill="#FFD874"/>
</g>
<path d="M17 13V14.5H25V13C25 11.8954 24.1046 11 23 11H19C17.8954 11 17 11.8954 17 13Z" stroke="#FFD874"/>
<path d="M13 27.5V20H29.5V27.5C29.5 28.6046 28.6046 29.5 27.5 29.5H15C13.8954 29.5 13 28.6046 13 27.5Z" fill="#FFD874" stroke="#FFD874"/>
<path d="M29.5 14H13C11.8954 14 11 14.8954 11 16V17.5C11 19.7091 12.7909 21.5 15 21.5H27.5C29.7091 21.5 31.5 19.7091 31.5 17.5V16C31.5 14.8954 30.6046 14 29.5 14Z" fill="#FFBB0A" stroke="#FFBB0A"/>
<circle cx="22" cy="19" r="1" fill="#FFD874"/>
</g>
<defs>
<clipPath id="clip0_2552_12181">
<rect width="40" height="40" rx="20" fill="white"/>
</clipPath>
</defs>
</svg>
