<svg width="28" height="28" viewBox="0 0 28 28" fill="none" xmlns="http://www.w3.org/2000/svg">
<path d="M11.333 14.4457C11.333 14.0324 11.333 13.8258 11.3784 13.6562C11.5017 13.1961 11.8611 12.8367 12.3212 12.7134C12.4908 12.668 12.6975 12.668 13.1108 12.668H14.8886C15.3019 12.668 15.5085 12.668 15.6781 12.7134C16.1382 12.8367 16.4976 13.1961 16.6209 13.6562C16.6663 13.8258 16.6663 14.0324 16.6663 14.4457V15.3346C16.6663 16.8074 15.4724 18.0013 13.9997 18.0013C12.5269 18.0013 11.333 16.8074 11.333 15.3346V14.4457Z" stroke="white" stroke-width="2" stroke-linecap="round" stroke-linejoin="round"/>
<path d="M16.4017 15.3333C16.8172 15.2126 17.2885 15.0673 17.8397 14.8973L23.4012 13.1822C25.3807 12.5717 26.3495 11.508 26.5603 9.66636C26.6545 8.84264 26.7017 8.43078 26.6354 8.09363C26.4462 7.13152 25.6382 6.35139 24.5614 6.09118C24.184 6 23.7103 6 22.7629 6H5.23643C4.28901 6 3.8153 6 3.43796 6.09118C2.36115 6.35139 1.55315 7.13152 1.36398 8.09363C1.29769 8.43078 1.34482 8.84264 1.43909 9.66636C1.64986 11.508 2.61867 12.5717 4.5981 13.1822L10.1596 14.8973C10.7108 15.0673 11.1821 15.2126 11.5976 15.3333" stroke="white" stroke-width="2"/>
<path d="M2.61711 12.668L2.35545 15.5643C1.88641 20.7562 1.65189 23.3521 3.15645 25.0101C4.66101 26.668 7.25135 26.668 12.432 26.668H15.568C20.7486 26.668 23.339 26.668 24.8435 25.0101C26.3481 23.3521 26.1136 20.7562 25.6446 15.5643L25.3829 12.668" stroke="white" stroke-width="2" stroke-linecap="round" stroke-linejoin="round"/>
<path d="M18.6663 5.33398L18.5633 4.98077C18.05 3.22072 17.7933 2.34069 17.1822 1.83734C16.5712 1.33398 15.7595 1.33398 14.1361 1.33398H13.8632C12.2399 1.33398 11.4282 1.33398 10.8171 1.83734C10.2061 2.34069 9.94938 3.22072 9.43603 4.98077L9.33301 5.33398" stroke="white" stroke-width="2"/>
</svg>
