<svg width="28" height="28" viewBox="0 0 28 28" fill="none" xmlns="http://www.w3.org/2000/svg">
<path d="M2 11.334V21.9821C2 24.5697 4.38781 26.6673 7.33333 26.6673H20.6667C23.6122 26.6673 26 24.5697 26 21.9821V11.334" stroke="white" stroke-width="2" stroke-linecap="round"/>
<path d="M23.4092 2.66797C24.082 2.66797 24.4184 2.66797 24.6967 2.73483C25.6454 2.96276 26.3863 3.74259 26.6028 4.74125C26.6663 5.03417 26.6663 5.3883 26.6663 6.09654C26.6663 7.86715 26.6663 8.75246 26.5076 9.48478C25.9662 11.9814 24.1141 13.931 21.7423 14.5008C21.0466 14.668 20.2056 14.668 18.5235 14.668H9.47587C7.79379 14.668 6.95275 14.668 6.25704 14.5008C3.88523 13.931 2.03315 11.9814 1.4918 9.48478C1.33301 8.75246 1.33301 7.86715 1.33301 6.09654C1.33301 5.3883 1.33301 5.03417 1.39652 4.74125C1.61306 3.74259 2.3539 2.96276 3.30262 2.73483C3.5809 2.66797 3.91732 2.66797 4.59015 2.66797M10.1997 2.66797H17.7997" stroke="white" stroke-width="2"/>
<path d="M4.66602 3.33398C4.66602 2.71273 4.66602 2.4021 4.76751 2.15707C4.90283 1.83037 5.1624 1.5708 5.4891 1.43548C5.73413 1.33398 6.04476 1.33398 6.66602 1.33398H7.99935C8.6206 1.33398 8.93123 1.33398 9.17626 1.43548C9.50296 1.5708 9.76253 1.83037 9.89786 2.15707C9.99935 2.4021 9.99935 2.71273 9.99935 3.33398C9.99935 3.95524 9.99935 4.26587 9.89786 4.5109C9.76253 4.8376 9.50296 5.09717 9.17626 5.23249C8.93123 5.33398 8.6206 5.33398 7.99935 5.33398H6.66602C6.04476 5.33398 5.73413 5.33398 5.4891 5.23249C5.1624 5.09717 4.90283 4.8376 4.76751 4.5109C4.66602 4.26587 4.66602 3.95524 4.66602 3.33398Z" stroke="white" stroke-width="2"/>
<path d="M17.9993 3.33398C17.9993 2.71273 17.9993 2.4021 18.1008 2.15707C18.2362 1.83037 18.4957 1.5708 18.8224 1.43548C19.0675 1.33398 19.3781 1.33398 19.9993 1.33398H21.3327C21.9539 1.33398 22.2646 1.33398 22.5096 1.43548C22.8363 1.5708 23.0959 1.83037 23.2312 2.15707C23.3327 2.4021 23.3327 2.71273 23.3327 3.33398C23.3327 3.95524 23.3327 4.26587 23.2312 4.5109C23.0959 4.8376 22.8363 5.09717 22.5096 5.23249C22.2646 5.33398 21.9539 5.33398 21.3327 5.33398H19.9993C19.3781 5.33398 19.0675 5.33398 18.8224 5.23249C18.4957 5.09717 18.2362 4.8376 18.1008 4.5109C17.9993 4.26587 17.9993 3.95524 17.9993 3.33398Z" stroke="white" stroke-width="2"/>
<path d="M7.33301 22H11.333" stroke="white" stroke-width="2" stroke-linecap="round" stroke-linejoin="round"/>
</svg>
